<svg xmlns="http://www.w3.org/2000/svg" fill="#222" viewBox="0 0 48 48"><path d="M0, 8V31a9, 9, 0, 0, 0, 9, 9H39a9, 9, 0, 0, 0, 9-9V8H0ZM46, 31a7, 7, 0, 0, 1-7, 7H9a7, 7, 0, 0, 1-7-7V10H46V31Z"/><rect width="4" height="4" x="6" y="28"/><rect width="4" height="4" x="38" y="28"/><rect width="4" height="4" x="6" y="14"/><rect width="4" height="4" x="14" y="14"/><rect width="4" height="4" x="22" y="14"/><rect width="4" height="4" x="10" y="21"/><rect width="4" height="4" x="18" y="21"/><rect width="4" height="4" x="26" y="21"/><rect width="4" height="4" x="34" y="21"/><rect width="4" height="4" x="38" y="14"/><rect width="4" height="4" x="30" y="14"/><rect width="20" height="4" x="14" y="28"/></svg>